<?xml version="1.0" encoding="UTF-8"?>
<svg xmlns="http://www.w3.org/2000/svg" xmlns:xlink="http://www.w3.org/1999/xlink" width="27px" height="27px" viewBox="0 0 27 27" version="1.1">
<g id="surface1">
<path style="fill-rule:nonzero;fill:rgb(100%,100%,100%);fill-opacity:1;stroke-width:1;stroke-linecap:butt;stroke-linejoin:miter;stroke:rgb(100%,100%,100%);stroke-opacity:1;stroke-miterlimit:4;" d="M 380.660743 64.188327 C 338.62419 31.15498 282.920899 12.954254 223.849503 12.954254 C 164.778106 12.954254 109.074815 31.15498 67.038262 64.188327 C 23.835827 98.128471 0 143.597901 0 192.241124 C 0 240.236633 24.418768 286.742404 67.038262 320.293921 L 46.894398 414.859972 C 45.598973 420.948471 47.801196 427.101742 52.529498 431.052789 C 55.508977 433.449326 59.200939 434.744752 62.957673 434.744752 C 65.224667 434.744752 67.42689 434.291353 69.499571 433.384555 L 212.514531 371.268909 C 216.336035 371.463223 220.092769 371.527994 223.849503 371.527994 C 282.920899 371.527994 338.62419 353.327268 380.660743 320.293921 C 423.863178 286.353776 447.699005 240.884346 447.699005 192.241124 C 447.699005 143.597901 423.863178 98.128471 380.660743 64.188327 Z M 348.534194 279.423251 C 315.630389 305.266987 271.326842 319.516666 223.914274 319.516666 C 223.20179 319.516666 150.010257 317.962155 101.043178 280.848218 C 84.591276 268.412135 72.867677 254.939711 64.058784 238.617352 C 56.027147 223.71996 52.011328 208.110084 52.011328 192.241124 C 52.011328 176.501706 55.832833 161.150915 63.411071 146.706922 C 71.50748 131.356132 83.490165 117.365538 99.164811 105.058997 C 132.068616 79.215261 176.372163 64.965582 223.849503 64.965582 C 271.326842 64.965582 315.630389 79.215261 348.534194 105.058997 C 364.208841 117.365538 376.191525 131.356132 384.287934 146.706922 C 391.866172 161.150915 395.687677 176.501706 395.687677 192.241124 C 395.687677 207.980542 391.866172 223.331332 384.287934 237.775325 C 376.191525 253.126116 364.208841 267.11671 348.534194 279.423251 Z M 348.534194 279.423251 " transform="matrix(0.0603084,0,0,0.0603084,0,0)"/>
</g>
</svg>
