<?xml version="1.0" encoding="UTF-8"?>
<svg xmlns="http://www.w3.org/2000/svg" xmlns:xlink="http://www.w3.org/1999/xlink" width="35px" height="35px" viewBox="0 0 35 35" version="1.1">
<g id="surface1">
<path style="fill-rule:nonzero;fill:rgb(100%,100%,100%);fill-opacity:1;stroke-width:1;stroke-linecap:butt;stroke-linejoin:miter;stroke:rgb(100%,100%,100%);stroke-opacity:1;stroke-miterlimit:4;" d="M 128 96 C 110.314286 96 96 110.314286 96 128 C 96 145.685714 110.314286 160 128 160 C 145.685714 160 160 145.685714 160 128 C 159.971429 110.342857 145.657143 96.028571 128 96 Z M 128 136 C 123.571429 136 120 132.428571 120 128 C 120 123.571429 123.571429 120 128 120 C 132.428571 120 136 123.571429 136 128 C 136 132.428571 132.428571 136 128 136 Z M 208 96 C 190.314286 96 176 110.314286 176 128 C 176 145.685714 190.314286 160 208 160 C 225.685714 160 240 145.685714 240 128 C 239.971429 110.342857 225.657143 96.028571 208 96 Z M 208 136 C 203.571429 136 200 132.428571 200 128 C 200 123.571429 203.571429 120 208 120 C 212.428571 120 216 123.571429 216 128 C 216 132.428571 212.428571 136 208 136 Z M 48 96 C 30.314286 96 16 110.314286 16 128 C 16 145.685714 30.314286 160 48 160 C 65.685714 160 80 145.685714 80 128 C 79.971429 110.342857 65.657143 96.028571 48 96 Z M 48 136 C 43.571429 136 40 132.428571 40 128 C 40 123.571429 43.571429 120 48 120 C 52.428571 120 56 123.571429 56 128 C 56 132.428571 52.428571 136 48 136 Z M 48 136 " transform="matrix(0.136719,0,0,0.136719,0,0)"/>
</g>
</svg>
