<svg xmlns="http://www.w3.org/2000/svg" width="600" height="600" viewBox="0 0 600 600" version="1.1">
    <path d="M 281.318 14.099 C 258.187 17.960, 233.949 30.797, 145 86.296 C 74.219 130.459, 65.509 136.488, 49.396 152.475 C 29.042 172.671, 20.093 191.125, 15.271 222.849 C 13.662 233.436, 13.503 243.903, 13.528 337.500 C 13.553 427.565, 13.771 442.526, 15.266 456.635 C 20.077 502.053, 29.309 526.255, 49.862 547.333 C 74.589 572.692, 103.514 582.125, 165.500 585.047 C 197.209 586.542, 437.557 585.798, 453.500 584.155 C 500.641 579.299, 524.751 570.536, 545.747 550.624 C 566.423 531.016, 577.041 506.853, 582.055 468 C 585.372 442.294, 586.216 408.650, 585.768 320 C 585.404 247.971, 585.111 234.883, 583.634 224.726 C 578.553 189.773, 567.873 168.847, 544.272 147.604 C 528.490 133.398, 520.081 127.687, 456.500 87.994 C 363.177 29.734, 340.877 17.997, 316 14.047 C 308.360 12.834, 288.719 12.863, 281.318 14.099 M 291.760 54.087 C 274.162 56.034, 261.167 62.710, 193.036 104.802 C 96.424 164.492, 83.303 173.398, 72.578 186.563 C 55.338 207.727, 53.042 223.579, 53.034 321.500 C 53.024 431.335, 55.390 469.008, 63.838 493.516 C 72.621 519, 88.973 532.340, 120.180 539.482 C 140.372 544.103, 145.188 544.257, 283.992 544.707 C 442.238 545.219, 461.964 544.511, 486.794 537.425 C 526.610 526.062, 540.484 501.092, 543.983 434.500 C 545.303 409.376, 545.292 256.401, 543.969 239 C 541.227 202.930, 532.094 187.200, 501 164.987 C 484.764 153.388, 368.462 81.203, 347.500 69.714 C 323.287 56.443, 308.339 52.253, 291.760 54.087 M 210.204 441.128 C 203.754 444.321, 198.991 451.881, 199.006 458.899 C 199.026 468.339, 205.991 476.987, 215.175 478.976 C 219.023 479.810, 243.243 480.042, 302.500 479.815 C 380.357 479.516, 384.677 479.405, 388 477.629 C 395.723 473.502, 399.315 467.591, 399.320 459 C 399.323 452.900, 397.629 448.877, 393.339 444.803 C 386.974 438.757, 390.940 439, 298.782 439.001 C 214.842 439.002, 214.483 439.010, 210.204 441.128" stroke="none" fill="#c2d0e1" fill-rule="evenodd"/></svg>