<?xml version="1.0" encoding="UTF-8"?>
<svg xmlns="http://www.w3.org/2000/svg" xmlns:xlink="http://www.w3.org/1999/xlink" width="24px" height="24px" viewBox="0 0 24 24" version="1.1">
<g id="surface1">
<path style=" stroke:none;fill-rule:nonzero;fill:rgb(100%,100%,100%);fill-opacity:1;" d="M 12 3.035156 C 13.039062 1.695312 14.21875 0.84375 15.421875 0.398438 C 16.6875 -0.0664062 17.976562 -0.078125 19.152344 0.265625 C 20.332031 0.609375 21.402344 1.316406 22.226562 2.273438 C 23.316406 3.542969 24 5.246094 24 7.171875 C 24 10.21875 22.710938 13.125 20.597656 15.929688 C 18.617188 18.5625 15.902344 21.125 12.863281 23.65625 C 12.359375 24.078125 11.695312 24.074219 11.203125 23.703125 L 11.203125 23.707031 L 11.195312 23.703125 L 11.191406 23.703125 L 11.152344 23.667969 C 10.28125 23.019531 9.441406 22.355469 8.652344 21.679688 C 7.859375 21.007812 7.085938 20.296875 6.339844 19.554688 C 2.457031 15.6875 0 11.457031 0 7.171875 C 0 5.214844 0.671875 3.515625 1.746094 2.257812 C 2.574219 1.289062 3.644531 0.589844 4.828125 0.25 C 6 -0.0820312 7.285156 -0.0625 8.550781 0.402344 C 9.765625 0.847656 10.957031 1.699219 12 3.035156 Z M 16.3125 3.554688 C 15.238281 3.949219 14.164062 4.921875 13.28125 6.648438 C 13.160156 6.914062 12.96875 7.140625 12.726562 7.300781 C 12.03125 7.753906 11.140625 7.480469 10.742188 6.691406 C 9.863281 4.949219 8.761719 3.960938 7.660156 3.558594 C 6.9375 3.292969 6.203125 3.28125 5.535156 3.46875 L 5.53125 3.46875 C 4.878906 3.652344 4.289062 4.039062 3.832031 4.570312 C 3.273438 5.226562 2.921875 6.128906 2.921875 7.171875 C 2.921875 10.40625 4.988281 13.804688 8.253906 17.054688 C 8.894531 17.695312 9.609375 18.351562 10.390625 19.015625 C 10.902344 19.453125 11.4375 19.886719 11.960938 20.292969 C 14.507812 18.121094 16.753906 15.949219 18.386719 13.773438 C 20.0625 11.550781 21.082031 9.34375 21.082031 7.171875 C 21.082031 6.160156 20.722656 5.265625 20.152344 4.597656 C 19.6875 4.0625 19.09375 3.664062 18.433594 3.472656 C 17.769531 3.277344 17.039062 3.285156 16.3125 3.554688 Z M 16.3125 3.554688 "/>
</g>
</svg>
