<?xml version="1.0" encoding="UTF-8"?>
<svg xmlns="http://www.w3.org/2000/svg" xmlns:xlink="http://www.w3.org/1999/xlink" width="24px" height="24px" viewBox="0 0 24 24" version="1.1">
<g id="surface1">
<path style=" stroke:none;fill-rule:evenodd;fill:rgb(96.862745%,47.843137%,62.7451%);fill-opacity:1;" d="M 11.890625 4.394531 C 18 -7.132812 35.789062 7.839844 11.867188 24 C -12.261719 6.691406 7.089844 -7.503906 11.890625 4.394531 Z M 11.890625 4.394531 "/>
<path style=" stroke:none;fill-rule:evenodd;fill:rgb(92.54902%,33.333334%,47.843137%);fill-opacity:1;" d="M 5.691406 0.0351562 C 7.972656 -0.222656 10.378906 0.976562 11.753906 4.082031 C 11.816406 4.285156 11.871094 4.488281 11.917969 4.691406 C 12.414062 6.496094 11.925781 7.304688 11.316406 7.351562 C 10.464844 7.417969 10.367188 6.570312 10.144531 5.898438 C 9.03125 2.53125 7.441406 0.664062 5.457031 0.0976562 C 5.535156 0.0742188 5.613281 0.0546875 5.691406 0.0351562 Z M 16.148438 0.558594 C 23.003906 -1.5 30.996094 10.296875 13.101562 23.136719 C 26.324219 11.34375 22.046875 1.902344 16.148438 0.558594 Z M 16.148438 0.558594 "/>
<path style=" stroke:none;fill-rule:evenodd;fill:rgb(98.039216%,61.960787%,73.333335%);fill-opacity:1;" d="M 6.121094 1.867188 C 4.121094 1.644531 2.011719 3.125 1.472656 5.34375 C 1.105469 6.691406 1.46875 7.292969 1.921875 7.332031 C 2.558594 7.378906 2.628906 6.746094 2.796875 6.246094 C 3.628906 3.730469 4.8125 2.339844 6.296875 1.917969 C 6.238281 1.898438 6.179688 1.882812 6.121094 1.867188 Z M 6.121094 1.867188 "/>
</g>
</svg>
