<svg xmlns="http://www.w3.org/2000/svg" width="600" height="600" viewBox="0 0 600 600" version="1.1"><path d="M 163.500 46.670 C 144.905 48.223, 122.096 54.886, 103.712 64.135 C 87.032 72.527, 65.251 90.010, 52.181 105.500 C 31.171 130.400, 15.307 166.603, 10.991 199.500 C 9.367 211.881, 9.591 243.102, 11.401 256.505 C 19.236 314.548, 46.731 365.960, 95.677 414.094 C 121.648 439.635, 132.066 448.382, 194.419 497 C 227.119 522.497, 240.583 531.963, 254 538.889 C 287.373 556.116, 311.500 556.084, 345.323 538.768 C 357.885 532.337, 371.843 522.377, 411.500 491.546 C 466.187 449.030, 487.015 431.248, 509.500 407.879 C 555.239 360.342, 580.113 311.599, 587.516 255 C 590.601 231.409, 589.410 202.749, 584.440 181 C 580.049 161.787, 569.484 137.923, 557.279 119.650 C 547.759 105.396, 525.094 82.698, 511.500 73.803 C 467.279 44.869, 417.834 38.689, 368 55.867 C 347.571 62.910, 322.967 77.207, 306.389 91.669 C 303.028 94.601, 299.947 97, 299.543 97 C 299.138 97, 296.038 94.605, 292.654 91.677 C 275.852 77.145, 250.258 62.390, 229.753 55.416 C 208.885 48.318, 183.651 44.987, 163.500 46.670 M 164.261 91.150 C 110.017 97.099, 65.832 141.888, 55.400 201.500 C 53.569 211.963, 53.327 239.387, 54.963 251 C 61.386 296.585, 83.346 338.163, 122.500 378.867 C 141.840 398.973, 164.772 418.253, 222.098 462.606 C 264.685 495.555, 276.292 502.930, 291.448 506.671 C 301.200 509.077, 308.346 507.683, 322.500 500.612 C 335.551 494.093, 342.623 489.062, 384.621 456.417 C 440.346 413.102, 457.338 398.794, 475.500 379.891 C 523.428 330.009, 545.178 281.811, 545.095 225.669 C 545.058 200.508, 540.823 182.222, 530.115 161 C 522.376 145.659, 516.480 137.411, 505.006 125.868 C 482.229 102.956, 453.782 90.715, 423.620 90.850 C 417.087 90.879, 408.312 91.421, 404.120 92.055 C 387.706 94.537, 364.955 103.942, 348.176 115.180 C 338.439 121.702, 332.787 126.333, 321.308 137.193 C 310.092 147.803, 307.475 149.250, 299.500 149.250 C 291.573 149.250, 288.443 147.578, 278.500 138.036 C 256.871 117.278, 236.258 104.260, 212.908 96.611 C 197.703 91.630, 179.015 89.532, 164.261 91.150" stroke="none" fill="#c2d0e1" fill-rule="evenodd"/></svg>