<?xml version="1.0" encoding="UTF-8"?>
<svg xmlns="http://www.w3.org/2000/svg" xmlns:xlink="http://www.w3.org/1999/xlink" width="27px" height="27px" viewBox="0 0 27 27" version="1.1">
<g id="surface1">
<path style=" stroke:none;fill-rule:nonzero;fill:rgb(100%,100%,100%);fill-opacity:1;" d="M 13.5 5.125 L 14.785156 8.476562 C 15.488281 10 16.914062 11.066406 18.578125 11.320312 L 21.9375 11.875 L 19.285156 14.394531 C 18.183594 15.535156 17.683594 17.128906 17.933594 18.695312 L 18.5625 22 L 15.949219 20.699219 C 15.179688 20.359375 14.335938 20.226562 13.5 20.3125 C 12.664062 20.226562 11.820312 20.359375 11.050781 20.699219 L 8.4375 22 L 9.070312 18.699219 C 9.320312 17.128906 8.816406 15.535156 7.714844 14.394531 L 5.0625 11.875 L 8.421875 11.320312 C 10.085938 11.066406 11.511719 10 12.214844 8.476562 L 13.5 5.125 M 13.5 0 C 12.859375 -0.00390625 12.269531 0.367188 12 0.953125 L 9.15625 7.050781 C 8.925781 7.550781 8.457031 7.902344 7.910156 7.984375 L 1.402344 8.988281 C 0.789062 9.078125 0.28125 9.507812 0.0859375 10.09375 C -0.109375 10.679688 0.0351562 11.324219 0.472656 11.769531 L 5.292969 16.742188 C 5.65625 17.117188 5.824219 17.640625 5.738281 18.160156 L 4.613281 25.074219 C 4.507812 25.703125 4.773438 26.332031 5.292969 26.699219 C 5.808594 27.0625 6.496094 27.097656 7.046875 26.785156 L 12.699219 23.644531 C 13.203125 23.363281 13.808594 23.363281 14.304688 23.644531 L 19.957031 26.785156 C 20.511719 27.097656 21.195312 27.0625 21.710938 26.699219 C 22.230469 26.332031 22.496094 25.703125 22.390625 25.074219 L 21.269531 18.160156 C 21.179688 17.640625 21.347656 17.117188 21.710938 16.742188 L 26.535156 11.769531 C 26.964844 11.324219 27.113281 10.679688 26.917969 10.089844 C 26.71875 9.507812 26.210938 9.078125 25.601562 8.984375 L 19.089844 7.984375 C 18.542969 7.902344 18.074219 7.550781 17.84375 7.050781 L 15 0.953125 C 14.730469 0.367188 14.140625 -0.00390625 13.5 0 Z M 13.5 0 "/>
</g>
</svg>
