<svg xmlns="http://www.w3.org/2000/svg" width="600" height="600" viewBox="0 0 600 600" version="1.1"><path d="M 215 13.664 C 139.504 16.225, 105.067 23.709, 74.500 44.199 C 71.200 46.411, 64.100 52.558, 58.722 57.860 C 30.659 85.526, 19.181 119.145, 14.801 186.500 C 13.006 214.093, 12.995 386.718, 14.786 413.427 C 19.142 478.386, 30.740 513.673, 56.332 539.825 C 84.957 569.077, 120.979 581.173, 191.434 585.193 C 220.231 586.836, 380.183 586.830, 408.500 585.184 C 478.394 581.123, 513.361 569.638, 541.499 541.499 C 564.959 518.040, 576.640 489.604, 582.470 441.763 C 584.928 421.593, 586.088 391.205, 586.300 341.435 L 586.500 294.370 583.491 289.490 C 574.615 275.094, 551.999 277.419, 547.171 293.225 C 546.598 295.103, 545.936 317.404, 545.620 345.500 C 545.317 372.450, 544.589 402.375, 544.002 412 C 542.931 429.585, 541.379 444.955, 540.596 445.738 C 540.364 445.969, 522.923 430.543, 501.838 411.457 C 480.752 392.372, 461.025 375.072, 458 373.014 C 439.141 360.182, 418.297 354.278, 395.500 355.313 C 375.030 356.242, 360.678 361.233, 340.894 374.301 C 323.598 385.726, 315.077 387.276, 302 381.372 C 297.262 379.233, 287.773 370.189, 233.500 316.080 C 166.841 249.622, 166.095 248.962, 150.477 242.616 C 137.086 237.175, 118.266 235.499, 104.073 238.485 C 87.947 241.877, 76.656 247.868, 62.350 260.625 C 58.418 264.131, 54.931 267, 54.600 267 C 52.738 267, 54.500 198.149, 57.095 169.500 C 63.257 101.478, 86.451 71.617, 141.292 61.098 C 167.337 56.103, 185.778 54.927, 250.500 54.136 C 311.835 53.386, 308.316 53.821, 315.252 46.143 C 319.180 41.795, 320.725 35.856, 319.651 29.239 C 318.856 24.339, 314.120 18.023, 309.373 15.532 C 305.669 13.588, 303.716 13.497, 264.500 13.438 C 241.950 13.404, 219.675 13.506, 215 13.664 M 465.500 14.437 C 461.139 16.037, 456.588 20.661, 454.395 25.718 C 453.281 28.287, 453 36.708, 453 67.468 L 453 106 415.682 106 C 372.292 106, 370.366 106.276, 364.599 113.314 C 358.132 121.206, 357.979 131.879, 364.225 139.457 C 370.373 146.915, 370.628 146.953, 414.250 146.978 L 453 147 453.022 185.750 C 453.042 221.284, 453.197 224.832, 454.890 228.500 C 461.237 242.253, 479.668 243.938, 489.442 231.658 L 492.500 227.817 492.783 187.408 L 493.065 147 531.565 147 C 573.501 147, 574.334 146.901, 580.339 141.197 C 591.463 130.631, 587.093 111.842, 572.488 107.446 C 568.666 106.296, 560.036 106, 530.341 106 L 493 106 493 66.613 L 493 27.226 489.750 22.402 C 487.962 19.749, 485.056 16.742, 483.291 15.721 C 478.944 13.205, 470.513 12.597, 465.500 14.437 M 111 278.657 C 99.778 282.395, 98.232 283.487, 73.250 305.335 L 54 322.171 54.002 348.335 C 54.008 410.794, 57.881 453.455, 65.661 476.735 C 79.801 519.047, 110.125 537.763, 173 542.982 C 222.258 547.071, 377.254 547.052, 427 542.951 C 453.357 540.779, 475.691 535.604, 491.313 528.051 C 505.193 521.339, 518.944 508.279, 525.684 495.406 L 528.351 490.312 523.977 486.406 C 521.572 484.258, 502.480 467.024, 481.552 448.109 C 460.623 429.193, 441.025 411.729, 438 409.299 C 427.269 400.679, 417.702 397.073, 403.500 396.295 C 387.737 395.431, 377.490 398.746, 360.725 410.133 C 343.319 421.954, 331.408 425.545, 312.161 424.772 C 298.277 424.215, 287.517 421.055, 277.480 414.589 C 273.190 411.825, 250.544 390.151, 207.581 347.692 C 146.186 287.016, 143.776 284.766, 136.580 281.442 C 129.900 278.355, 128.272 278.008, 120.816 278.079 C 116.242 278.122, 111.825 278.383, 111 278.657" stroke="none" fill="#f2af4c" fill-rule="evenodd"/></svg>