<?xml version="1.0" encoding="UTF-8"?>
<svg xmlns="http://www.w3.org/2000/svg" xmlns:xlink="http://www.w3.org/1999/xlink" width="27px" height="27px" viewBox="0 0 27 27" version="1.1">
<g id="surface1">
<path style=" stroke:none;fill-rule:nonzero;fill:rgb(100%,100%,100%);fill-opacity:1;" d="M 14.335938 0.988281 C 14.703125 1.167969 15.003906 1.460938 15.1875 1.824219 L 18.34375 8.09375 L 25.390625 9.109375 C 26.421875 9.253906 27.132812 10.191406 26.976562 11.207031 C 26.921875 11.605469 26.726562 11.976562 26.433594 12.261719 L 21.339844 17.148438 L 22.53125 24.046875 C 22.710938 25.050781 22.019531 26.007812 20.996094 26.179688 C 20.589844 26.25 20.171875 26.183594 19.804688 25.996094 L 13.5 22.742188 L 7.195312 25.996094 C 6.273438 26.46875 5.132812 26.117188 4.652344 25.214844 C 4.464844 24.855469 4.394531 24.445312 4.46875 24.046875 L 5.660156 17.148438 L 0.566406 12.261719 C -0.175781 11.546875 -0.1875 10.375 0.535156 9.648438 C 0.820312 9.355469 1.199219 9.167969 1.609375 9.109375 L 8.65625 8.09375 L 11.8125 1.824219 C 12.273438 0.910156 13.402344 0.535156 14.335938 0.988281 Z M 14.335938 0.988281 "/>
</g>
</svg>
